<svg width="18" height="18" viewBox="0 0 18 18" fill="none" xmlns="http://www.w3.org/2000/svg">
    <path d="M7.85916 1.51249C8.21916 0.407294 9.78276 0.407294 10.1416 1.51249L11.4256 5.46289C11.504 5.70348 11.6565 5.91311 11.8612 6.06182C12.066 6.21053 12.3125 6.29071 12.5656 6.29089H16.72C17.8828 6.29089 18.3652 7.77889 17.4256 8.46289L14.0656 10.9037C13.8604 11.0525 13.7076 11.2625 13.6292 11.5035C13.5507 11.7445 13.5506 12.0042 13.6288 12.2453L14.9128 16.1957C15.2728 17.3009 14.0068 18.2213 13.0648 17.5373L9.70476 15.0965C9.49981 14.9477 9.25303 14.8676 8.99976 14.8676C8.74649 14.8676 8.49971 14.9477 8.29476 15.0965L4.93476 17.5373C3.99396 18.2213 2.72916 17.3009 3.08796 16.1957L4.37196 12.2453C4.45017 12.0042 4.45003 11.7445 4.37156 11.5035C4.29309 11.2625 4.14032 11.0525 3.93516 10.9037L0.57636 8.46409C-0.36324 7.78009 0.12036 6.29209 1.28196 6.29209H5.43516C5.68842 6.29216 5.9352 6.2121 6.14019 6.06337C6.34517 5.91464 6.49785 5.70487 6.57636 5.46409L7.86036 1.51369L7.85916 1.51249Z"
          fill="#E5E5E5"/>
</svg>