<svg width="12" height="12" viewBox="0 0 24 24" fill="white" xmlns="http://www.w3.org/2000/svg">
    <g opacity="0.8">
        <path d="M12.0011 8.87567C10.2808 8.87567 8.87687 10.2796 8.87687 11.9999C8.87687 13.7202 10.2808 15.1241 12.0011 15.1241C13.7214 15.1241 15.1253 13.7202 15.1253 11.9999C15.1253 10.2796 13.7214 8.87567 12.0011 8.87567ZM21.3714 11.9999C21.3714 10.7061 21.3831 9.42411 21.3105 8.1327C21.2378 6.6327 20.8956 5.30145 19.7987 4.20458C18.6995 3.10536 17.3706 2.76552 15.8706 2.69286C14.5769 2.6202 13.2948 2.63192 12.0034 2.63192C10.7097 2.63192 9.42765 2.6202 8.13624 2.69286C6.63624 2.76552 5.30499 3.1077 4.20812 4.20458C3.1089 5.3038 2.76906 6.6327 2.6964 8.1327C2.62374 9.42645 2.63546 10.7085 2.63546 11.9999C2.63546 13.2913 2.62374 14.5757 2.6964 15.8671C2.76906 17.3671 3.11124 18.6983 4.20812 19.7952C5.30734 20.8944 6.63624 21.2343 8.13624 21.3069C9.42999 21.3796 10.712 21.3679 12.0034 21.3679C13.2972 21.3679 14.5792 21.3796 15.8706 21.3069C17.3706 21.2343 18.7019 20.8921 19.7987 19.7952C20.898 18.696 21.2378 17.3671 21.3105 15.8671C21.3855 14.5757 21.3714 13.2936 21.3714 11.9999V11.9999ZM12.0011 16.8069C9.34093 16.8069 7.19406 14.66 7.19406 11.9999C7.19406 9.33973 9.34093 7.19286 12.0011 7.19286C14.6612 7.19286 16.8081 9.33973 16.8081 11.9999C16.8081 14.66 14.6612 16.8069 12.0011 16.8069ZM17.005 8.11864C16.3839 8.11864 15.8823 7.61708 15.8823 6.99598C15.8823 6.37489 16.3839 5.87333 17.005 5.87333C17.6261 5.87333 18.1277 6.37489 18.1277 6.99598C18.1278 7.14347 18.0989 7.28953 18.0426 7.42582C17.9862 7.56212 17.9035 7.68595 17.7992 7.79023C17.695 7.89452 17.5711 7.97721 17.4348 8.03356C17.2985 8.08991 17.1525 8.11882 17.005 8.11864V8.11864Z" fill="#ffffff"/>
    </g>
</svg>