<svg width="10" height="10" viewBox="0 0 24 24" fill="none" xmlns="http://www.w3.org/2000/svg">
    <g opacity="0.8">
        <path
              d="M6.06022 4.85997C7.6356 3.28458 9.77228 2.39954 12.0002 2.39954C14.2282 2.39954 16.3648 3.28458 17.9402 4.85997C19.5156 6.43535 20.4006 8.57203 20.4006 10.8C20.4006 13.0279 19.5156 15.1646 17.9402 16.74L12.0002 22.68L6.06022 16.74C5.28011 15.9599 4.6613 15.0339 4.2391 14.0147C3.81691 12.9955 3.59961 11.9031 3.59961 10.8C3.59961 9.69679 3.81691 8.60442 4.2391 7.58523C4.6613 6.56604 5.28011 5.63999 6.06022 4.85997V4.85997ZM12.0002 13.2C12.6367 13.2 13.2472 12.9471 13.6973 12.497C14.1474 12.0469 14.4002 11.4365 14.4002 10.8C14.4002 10.1634 14.1474 9.553 13.6973 9.10291C13.2472 8.65282 12.6367 8.39996 12.0002 8.39996C11.3637 8.39996 10.7532 8.65282 10.3032 9.10291C9.85307 9.553 9.60022 10.1634 9.60022 10.8C9.60022 11.4365 9.85307 12.0469 10.3032 12.497C10.7532 12.9471 11.3637 13.2 12.0002 13.2Z"
              fill="#ffffff"/>
    </g>
</svg>