<svg width="12" height="12" viewBox="0 0 24 24" fill="white" xmlns="http://www.w3.org/2000/svg">
    <g opacity="0.8">
        <path d="M23.0617 5.13281C22.2461 5.49375 21.3742 5.7375 20.4555 5.85C21.393 5.2875 22.1148 4.39687 22.4523 3.3375C21.5758 3.85781 20.6055 4.2375 19.5695 4.43906C18.7398 3.55312 17.5586 3 16.2555 3C13.7477 3 11.718 5.03437 11.718 7.54219C11.718 7.89844 11.7555 8.24531 11.8352 8.57812C8.06172 8.39062 4.71484 6.58125 2.47891 3.82969C2.08984 4.5 1.86484 5.28281 1.86484 6.1125C1.86484 7.6875 2.67109 9.07969 3.88984 9.89531C3.13984 9.87656 2.43672 9.67031 1.82734 9.32812V9.38437C1.82734 11.5875 3.39297 13.4203 5.46953 13.8375C5.08984 13.9406 4.68672 13.9969 4.27422 13.9969C3.98359 13.9969 3.69766 13.9687 3.42109 13.9125C3.99766 15.7172 5.67578 17.0297 7.66328 17.0672C6.11172 18.2859 4.15234 19.0125 2.02422 19.0125C1.65859 19.0125 1.29766 18.9891 0.941406 18.9469C2.94297 20.25 5.32891 21 7.88828 21C16.2461 21 20.8117 14.0766 20.8117 8.07187C20.8117 7.875 20.807 7.67812 20.7977 7.48594C21.6836 6.84375 22.4523 6.04688 23.0617 5.13281Z" fill="#ffffff"/>
    </g>
</svg>